<mxfile host="app.diagrams.net" agent="Mozilla/5.0 (Windows NT 10.0; Win64; x64) AppleWebKit/537.36 (KHTML, like Gecko) Chrome/141.0.0.0 Safari/537.36 Edg/141.0.0.0" version="28.2.5">
  <diagram name="PÃ¡gina-1" id="1sADyENrY6rtenEwA-wK">
    <mxGraphModel dx="1668" dy="925" grid="1" gridSize="10" guides="1" tooltips="1" connect="1" arrows="1" fold="1" page="1" pageScale="1" pageWidth="827" pageHeight="1169" math="0" shadow="0">
      <root>
        <mxCell id="0" />
        <mxCell id="1" parent="0" />
        <mxCell id="ucRRHGQEte7lUw-WtmY8-41" style="edgeStyle=orthogonalEdgeStyle;rounded=0;orthogonalLoop=1;jettySize=auto;html=1;entryX=0.5;entryY=0;entryDx=0;entryDy=0;" edge="1" parent="1" source="ucRRHGQEte7lUw-WtmY8-1" target="ucRRHGQEte7lUw-WtmY8-40">
          <mxGeometry relative="1" as="geometry" />
        </mxCell>
        <mxCell id="ucRRHGQEte7lUw-WtmY8-1" value="i" style="ellipse;whiteSpace=wrap;html=1;" vertex="1" parent="1">
          <mxGeometry x="354" width="120" height="80" as="geometry" />
        </mxCell>
        <mxCell id="ucRRHGQEte7lUw-WtmY8-2" value="f" style="ellipse;whiteSpace=wrap;html=1;" vertex="1" parent="1">
          <mxGeometry x="350" y="900" width="120" height="80" as="geometry" />
        </mxCell>
        <mxCell id="ucRRHGQEte7lUw-WtmY8-25" value="" style="edgeStyle=orthogonalEdgeStyle;rounded=0;orthogonalLoop=1;jettySize=auto;html=1;" edge="1" parent="1" source="ucRRHGQEte7lUw-WtmY8-4" target="ucRRHGQEte7lUw-WtmY8-5">
          <mxGeometry relative="1" as="geometry" />
        </mxCell>
        <mxCell id="ucRRHGQEte7lUw-WtmY8-4" value="ler numero&lt;div&gt;&lt;br&gt;&lt;/div&gt;" style="shape=parallelogram;perimeter=parallelogramPerimeter;whiteSpace=wrap;html=1;fixedSize=1;" vertex="1" parent="1">
          <mxGeometry x="306" y="170" width="216" height="60" as="geometry" />
        </mxCell>
        <mxCell id="ucRRHGQEte7lUw-WtmY8-7" value="" style="edgeStyle=orthogonalEdgeStyle;rounded=0;orthogonalLoop=1;jettySize=auto;html=1;" edge="1" parent="1" source="ucRRHGQEte7lUw-WtmY8-5" target="ucRRHGQEte7lUw-WtmY8-6">
          <mxGeometry relative="1" as="geometry" />
        </mxCell>
        <mxCell id="ucRRHGQEte7lUw-WtmY8-8" value="sim" style="edgeLabel;html=1;align=center;verticalAlign=middle;resizable=0;points=[];" vertex="1" connectable="0" parent="ucRRHGQEte7lUw-WtmY8-7">
          <mxGeometry x="-0.619" y="-2" relative="1" as="geometry">
            <mxPoint as="offset" />
          </mxGeometry>
        </mxCell>
        <mxCell id="ucRRHGQEte7lUw-WtmY8-10" value="" style="edgeStyle=orthogonalEdgeStyle;rounded=0;orthogonalLoop=1;jettySize=auto;html=1;" edge="1" parent="1" source="ucRRHGQEte7lUw-WtmY8-5" target="ucRRHGQEte7lUw-WtmY8-9">
          <mxGeometry relative="1" as="geometry" />
        </mxCell>
        <mxCell id="ucRRHGQEte7lUw-WtmY8-5" value="numero == 0" style="rhombus;whiteSpace=wrap;html=1;" vertex="1" parent="1">
          <mxGeometry x="370" y="270" width="80" height="80" as="geometry" />
        </mxCell>
        <mxCell id="ucRRHGQEte7lUw-WtmY8-6" value="Escreva &quot;saindo do programa&quot;" style="shape=parallelogram;perimeter=parallelogramPerimeter;whiteSpace=wrap;html=1;fixedSize=1;" vertex="1" parent="1">
          <mxGeometry x="570" y="220" width="120" height="60" as="geometry" />
        </mxCell>
        <mxCell id="ucRRHGQEte7lUw-WtmY8-12" value="" style="edgeStyle=orthogonalEdgeStyle;rounded=0;orthogonalLoop=1;jettySize=auto;html=1;" edge="1" parent="1" source="ucRRHGQEte7lUw-WtmY8-9" target="ucRRHGQEte7lUw-WtmY8-11">
          <mxGeometry relative="1" as="geometry" />
        </mxCell>
        <mxCell id="ucRRHGQEte7lUw-WtmY8-13" value="sim" style="edgeLabel;html=1;align=center;verticalAlign=middle;resizable=0;points=[];" vertex="1" connectable="0" parent="ucRRHGQEte7lUw-WtmY8-12">
          <mxGeometry x="-0.44" y="-2" relative="1" as="geometry">
            <mxPoint as="offset" />
          </mxGeometry>
        </mxCell>
        <mxCell id="ucRRHGQEte7lUw-WtmY8-15" value="" style="edgeStyle=orthogonalEdgeStyle;rounded=0;orthogonalLoop=1;jettySize=auto;html=1;" edge="1" parent="1" source="ucRRHGQEte7lUw-WtmY8-9" target="ucRRHGQEte7lUw-WtmY8-14">
          <mxGeometry relative="1" as="geometry" />
        </mxCell>
        <mxCell id="ucRRHGQEte7lUw-WtmY8-9" value="numero % 3 == 0&amp;nbsp;" style="rhombus;whiteSpace=wrap;html=1;" vertex="1" parent="1">
          <mxGeometry x="340" y="370" width="140" height="80" as="geometry" />
        </mxCell>
        <mxCell id="ucRRHGQEte7lUw-WtmY8-38" style="edgeStyle=orthogonalEdgeStyle;rounded=0;orthogonalLoop=1;jettySize=auto;html=1;entryX=1;entryY=0.25;entryDx=0;entryDy=0;" edge="1" parent="1" source="ucRRHGQEte7lUw-WtmY8-11" target="ucRRHGQEte7lUw-WtmY8-4">
          <mxGeometry relative="1" as="geometry">
            <Array as="points">
              <mxPoint x="1180" y="410" />
              <mxPoint x="1180" y="136" />
            </Array>
          </mxGeometry>
        </mxCell>
        <mxCell id="ucRRHGQEte7lUw-WtmY8-11" value="escreva&quot;O numero e multiplo de 3&quot;" style="shape=parallelogram;perimeter=parallelogramPerimeter;whiteSpace=wrap;html=1;fixedSize=1;" vertex="1" parent="1">
          <mxGeometry x="570" y="380" width="120" height="60" as="geometry" />
        </mxCell>
        <mxCell id="ucRRHGQEte7lUw-WtmY8-17" value="" style="edgeStyle=orthogonalEdgeStyle;rounded=0;orthogonalLoop=1;jettySize=auto;html=1;" edge="1" parent="1" source="ucRRHGQEte7lUw-WtmY8-14" target="ucRRHGQEte7lUw-WtmY8-16">
          <mxGeometry relative="1" as="geometry" />
        </mxCell>
        <mxCell id="ucRRHGQEte7lUw-WtmY8-18" value="sim" style="edgeLabel;html=1;align=center;verticalAlign=middle;resizable=0;points=[];" vertex="1" connectable="0" parent="ucRRHGQEte7lUw-WtmY8-17">
          <mxGeometry x="0.1395" y="-1" relative="1" as="geometry">
            <mxPoint as="offset" />
          </mxGeometry>
        </mxCell>
        <mxCell id="ucRRHGQEte7lUw-WtmY8-14" value="numero % 5 == 0&amp;nbsp;" style="rhombus;whiteSpace=wrap;html=1;" vertex="1" parent="1">
          <mxGeometry x="340" y="485" width="140" height="80" as="geometry" />
        </mxCell>
        <mxCell id="ucRRHGQEte7lUw-WtmY8-36" style="edgeStyle=orthogonalEdgeStyle;rounded=0;orthogonalLoop=1;jettySize=auto;html=1;entryX=1;entryY=0.75;entryDx=0;entryDy=0;" edge="1" parent="1" source="ucRRHGQEte7lUw-WtmY8-16" target="ucRRHGQEte7lUw-WtmY8-4">
          <mxGeometry relative="1" as="geometry">
            <Array as="points">
              <mxPoint x="1320" y="525" />
              <mxPoint x="1320" y="163" />
            </Array>
          </mxGeometry>
        </mxCell>
        <mxCell id="ucRRHGQEte7lUw-WtmY8-16" value="escreva&quot;O numero e multiplo de 5&quot;" style="shape=parallelogram;perimeter=parallelogramPerimeter;whiteSpace=wrap;html=1;fixedSize=1;" vertex="1" parent="1">
          <mxGeometry x="560" y="495" width="120" height="60" as="geometry" />
        </mxCell>
        <mxCell id="ucRRHGQEte7lUw-WtmY8-29" style="edgeStyle=orthogonalEdgeStyle;rounded=0;orthogonalLoop=1;jettySize=auto;html=1;entryX=0.967;entryY=0.625;entryDx=0;entryDy=0;entryPerimeter=0;" edge="1" parent="1" source="ucRRHGQEte7lUw-WtmY8-6" target="ucRRHGQEte7lUw-WtmY8-2">
          <mxGeometry relative="1" as="geometry">
            <Array as="points">
              <mxPoint x="820" y="250" />
              <mxPoint x="820" y="950" />
            </Array>
          </mxGeometry>
        </mxCell>
        <mxCell id="ucRRHGQEte7lUw-WtmY8-42" style="edgeStyle=orthogonalEdgeStyle;rounded=0;orthogonalLoop=1;jettySize=auto;html=1;" edge="1" parent="1" source="ucRRHGQEte7lUw-WtmY8-40" target="ucRRHGQEte7lUw-WtmY8-4">
          <mxGeometry relative="1" as="geometry">
            <mxPoint x="400" y="160" as="targetPoint" />
          </mxGeometry>
        </mxCell>
        <mxCell id="ucRRHGQEte7lUw-WtmY8-40" value="numero = 0" style="rounded=0;whiteSpace=wrap;html=1;" vertex="1" parent="1">
          <mxGeometry x="200" y="80" width="120" height="60" as="geometry" />
        </mxCell>
      </root>
    </mxGraphModel>
  </diagram>
</mxfile>
